<svg id="Layer_1_copy" data-name="Layer 1 copy" xmlns="http://www.w3.org/2000/svg" viewBox="0 0 1291.63232 391.14844"><defs><style>.cls-1{fill:#fbb03b;}</style></defs><title>Nova-logo3</title><path class="cls-1" d="M49.36865,189.75244H150.562L294.2373,448.416h.95508V189.75244h74.46289V561.97461h-97.375L124.78613,297.00293h-.95459V561.97461H49.36865Z" transform="translate(-49.36865 -180.28906)"/><path class="cls-1" d="M401.15283,375.86377q0-44.67993,13.604-80.96387,13.604-36.27538,37.94726-61.77392a165.57937,165.57937,0,0,1,57.75684-39.16748q33.40577-13.6648,73.03125-13.66944,39.61451,0,73.03076,13.66944A165.63574,165.63574,0,0,1,714.2793,233.126q24.34423,25.50659,37.94824,61.77392,13.604,36.27612,13.60351,80.96387,0,44.69165-13.60351,80.96338-13.604,36.27538-37.94824,61.77441a165.42377,165.42377,0,0,1-57.75635,39.167q-33.416,13.66554-73.03076,13.66895-39.62549,0-73.03125-13.66895a165.36755,165.36755,0,0,1-57.75684-39.167q-24.3435-25.49413-37.94726-61.77441Q401.15283,420.5503,401.15283,375.86377Zm77.32715,0q0,26.29467,7.39844,48.105a112.30712,112.30712,0,0,0,21.24121,37.85254A97.06868,97.06868,0,0,0,540.294,486.794q19.33154,8.94579,43.19824,8.9375,23.8623,0,43.19824-8.9375a97.13215,97.13215,0,0,0,33.17383-24.97266,112.55677,112.55677,0,0,0,21.24121-37.85254q7.39454-21.81006,7.39844-48.105a149.80236,149.80236,0,0,0-7.39844-47.84229,112.23813,112.23813,0,0,0-21.24121-38.11572,97.35512,97.35512,0,0,0-33.17383-24.97265q-19.33227-8.93336-43.19824-8.9375-23.874,0-43.19824,8.9375a97.29134,97.29134,0,0,0-33.17432,24.97265,111.99225,111.99225,0,0,0-21.24121,38.11572A149.59891,149.59891,0,0,0,478.48,375.86377Z" transform="translate(-49.36865 -180.28906)"/><path class="cls-1" d="M744.82227,189.75244h84.96386l83.53223,243.94287h.95508L999.2373,189.75244h79.71387L939.57129,561.97461h-59.666Z" transform="translate(-49.36865 -180.28906)"/><path class="cls-1" d="M1132.40918,189.75244h61.5752L1341.001,561.97461h-84.00977L1227.875,483.11426H1096.60938l-28.16211,78.86035H986.34668Zm28.63965,108.30225L1119.999,413.7168h82.57715Z" transform="translate(-49.36865 -180.28906)"/></svg>